<svg xmlns="http://www.w3.org/2000/svg" xmlns:xlink="http://www.w3.org/1999/xlink" version="1.1" x="0px" y="0px" viewBox="0 0 128 160" enable-background="new 0 0 128 128" xml:space="preserve"><g><path fill="#000000" d="M60.676,83H44.892C43.162,83,42,81.733,42,79.848V66.017l-5.012-0.971c-0.333-0.064-0.61-0.292-0.737-0.607   s-0.086-0.671,0.108-0.949l5.358-7.637c0.081-6.503,2.622-12.576,7.176-17.13c4.661-4.661,10.845-7.228,17.414-7.228   c6.565,0,12.748,2.567,17.41,7.228c4.675,4.676,7.25,10.873,7.25,17.449c0,6.405-1.83,11.679-5.44,15.677   c-0.37,0.411-1.003,0.441-1.412,0.072c-0.41-0.37-0.442-1.003-0.072-1.412c3.268-3.619,4.925-8.443,4.925-14.337   c0-6.042-2.367-11.737-6.664-16.035c-4.284-4.283-9.965-6.642-15.996-6.642c-6.034,0-11.716,2.359-16,6.642   c-4.251,4.251-6.592,9.946-6.592,16.035c0,0.206-0.063,0.406-0.181,0.574l-4.652,6.63l4.308,0.833   c0.47,0.091,0.81,0.503,0.81,0.982v14.656C44,81,44.671,81,44.892,81h15.784c0.675,0,1.29-0.659,1.29-1.383c0-0.553,0.448-1,1-1   s1,0.447,1,1C63.966,81.451,62.459,83,60.676,83z"/></g><g><path fill="#000000" d="M83,96H63c-0.552,0-1-0.447-1-1V84c0-0.553,0.448-1,1-1s1,0.447,1,1v10h18V74c0-0.553,0.447-1,1-1   s1,0.447,1,1v21C84,95.553,83.553,96,83,96z"/></g><g><path fill="#000000" d="M68.818,53.662c-0.256,0-0.512-0.098-0.707-0.293c-1.132-1.133-3.109-1.134-4.244-0.001   c-0.391,0.391-1.025,0.39-1.415-0.001c-0.39-0.391-0.389-1.024,0.001-1.415c0.945-0.943,2.2-1.462,3.535-1.462   c1.336,0,2.592,0.52,3.536,1.465c0.391,0.391,0.391,1.023,0,1.414C69.33,53.564,69.074,53.662,68.818,53.662z"/></g><path fill="#000000" d="M85.788,71.046l-9.899-9.899c-0.391-0.391-1.023-0.391-1.414,0l-0.707,0.707l-0.749-0.749  c2.824-3.53,2.604-8.709-0.665-11.98c-1.7-1.699-3.961-2.635-6.364-2.635c-2.404,0-4.664,0.936-6.364,2.635  c-3.508,3.509-3.508,9.219,0,12.729c1.7,1.7,3.96,2.637,6.364,2.637c2.067,0,4.025-0.696,5.615-1.972l0.749,0.749l-0.707,0.707  c-0.391,0.391-0.391,1.023,0,1.414l9.899,9.899c0.188,0.188,0.441,0.293,0.707,0.293s0.52-0.105,0.707-0.293l2.828-2.828  c0.188-0.188,0.293-0.441,0.293-0.707S85.976,71.233,85.788,71.046z M61.04,60.439c-2.729-2.729-2.729-7.171,0-9.9  c1.322-1.321,3.08-2.049,4.95-2.049c1.87,0,3.628,0.728,4.95,2.049c2.729,2.73,2.729,7.171,0,9.9  c-1.322,1.322-3.08,2.051-4.95,2.051C64.12,62.49,62.362,61.762,61.04,60.439z M82.253,73.167l-8.485-8.485l1.414-1.414l8.485,8.485  L82.253,73.167z"/><g><path fill="#000000" d="M66,74c-9.925,0-18-8.075-18-18c0-9.925,8.075-18,18-18c9.925,0,18,8.075,18,18   c0,3.784-1.161,7.406-3.357,10.473c-0.321,0.448-0.947,0.552-1.396,0.231c-0.449-0.322-0.553-0.946-0.231-1.396   C80.968,62.583,82,59.364,82,56c0-8.822-7.178-16-16-16s-16,7.178-16,16s7.178,16,16,16c3.587,0,6.978-1.16,9.804-3.354   c0.438-0.34,1.065-0.26,1.403,0.177c0.339,0.437,0.26,1.064-0.177,1.403C73.85,72.694,70.035,74,66,74z"/></g><text x="0" y="143" fill="#000000" font-size="5px" font-weight="bold" font-family="'Helvetica Neue', Helvetica, Arial-Unicode, Arial, Sans-serif">Created by Souvik Bhattacharjee</text><text x="0" y="148" fill="#000000" font-size="5px" font-weight="bold" font-family="'Helvetica Neue', Helvetica, Arial-Unicode, Arial, Sans-serif">from the Noun Project</text></svg>